<svg xmlns="http://www.w3.org/2000/svg" width="10.989" height="17.399" viewBox="0 0 10.989 17.399"><g transform="translate(-5.951)"><path d="M15.528,0H7.363A1.345,1.345,0,0,0,5.951,1.267V16.132A1.345,1.345,0,0,0,7.363,17.4h8.165a1.346,1.346,0,0,0,1.412-1.266V1.267A1.346,1.346,0,0,0,15.528,0Zm-6.1.77h4.031c.1,0,.185.136.185.3s-.083.306-.185.306H9.431c-.1,0-.184-.137-.184-.306S9.328.77,9.431.77Zm2.015,15.378a.813.813,0,1,1,.9-.809A.86.86,0,0,1,11.446,16.148Zm4.436-2.77H7.01V2.139h8.873V13.378Z" fill="#fff"/></g></svg>