<svg xmlns="http://www.w3.org/2000/svg" width="167.5" height="30.746" viewBox="0 0 167.5 30.746"><g transform="translate(-320.822 -175.034)"><g transform="translate(372.364 175.288)"><g transform="translate(0.16)"><path d="M394.575,178.735l1.154.232a1.866,1.866,0,0,1,1.052.477,1.1,1.1,0,0,1,.286.747.956.956,0,0,1-.153.537,1.226,1.226,0,0,1-.421.388,2.242,2.242,0,0,1-.634.235,3.642,3.642,0,0,1-.787.081,3.81,3.81,0,0,1-1.121-.141,2.283,2.283,0,0,1-.726-.35,1.336,1.336,0,0,1-.4-.464,1.244,1.244,0,0,1-.135-.48l.987-.254a1.039,1.039,0,0,0,.127.513,1.088,1.088,0,0,0,.4.35,2.256,2.256,0,0,0,1.6.03.408.408,0,0,0,.275-.37.378.378,0,0,0-.237-.385,3.989,3.989,0,0,0-.669-.192l-1.068-.226a1.986,1.986,0,0,1-.933-.427.9.9,0,0,1-.329-.69.991.991,0,0,1,.119-.469,1.143,1.143,0,0,1,.358-.4,1.948,1.948,0,0,1,.6-.277,3.05,3.05,0,0,1,.855-.106,2.948,2.948,0,0,1,1.184.194,1.934,1.934,0,0,1,.636.424,1.376,1.376,0,0,1,.3.617l-.987.271a.894.894,0,0,0-.135-.421.992.992,0,0,0-.347-.288,1.447,1.447,0,0,0-.688-.132,1.323,1.323,0,0,0-.665.14.4.4,0,0,0-.24.345.347.347,0,0,0,.208.314A1.917,1.917,0,0,0,394.575,178.735Z" transform="translate(-392.693 -175.867)" fill="#fff"/><path d="M404.035,180.882l-.577-1.268h-2.4l-.577,1.268h-1.029l1.979-4.19h1.665l1.979,4.19Zm-2.724-4.686v-.809h.745v.809Zm.809,1.084-.8,1.742h1.865l-.793-1.742Zm.486-1.084v-.809h.744v.809Z" transform="translate(-394.589 -175.387)" fill="#fff"/><path d="M411.884,181.391v-1.8h-2.534v1.8h-.96V177.2h.96v1.806h2.534V177.2h.96v4.19Z" transform="translate(-397.098 -175.896)" fill="#fff"/><path d="M419.756,181.391l-1.785-1.871-.706.588v1.283h-.96V177.2h.96v1.973l2.329-1.973h1.2l-2.2,1.806,2.362,2.383Z" transform="translate(-399.319 -175.896)" fill="#fff"/><path d="M422.916,178.785a2,2,0,0,1,.729-1.559,2.521,2.521,0,0,1,.84-.447,3.821,3.821,0,0,1,2.2,0,2.532,2.532,0,0,1,.841.447,1.993,1.993,0,0,1,.728,1.559,2,2,0,0,1-.728,1.558,2.532,2.532,0,0,1-.841.447,3.82,3.82,0,0,1-2.2,0,2.521,2.521,0,0,1-.84-.447,2,2,0,0,1-.729-1.558Zm1,0a1.729,1.729,0,0,0,.1.581,1.265,1.265,0,0,0,.3.481,1.452,1.452,0,0,0,.521.324,2.457,2.457,0,0,0,1.5,0,1.439,1.439,0,0,0,.521-.324,1.247,1.247,0,0,0,.3-.481,1.792,1.792,0,0,0,0-1.164,1.263,1.263,0,0,0-.3-.481,1.447,1.447,0,0,0-.521-.323,2.442,2.442,0,0,0-1.5,0,1.46,1.46,0,0,0-.521.323,1.281,1.281,0,0,0-.3.481A1.734,1.734,0,0,0,423.914,178.785Zm.647-2.589v-.809h.745v.809Zm1.295,0v-.809h.744v.809Z" transform="translate(-401.175 -175.387)" fill="#fff"/></g><g transform="translate(0 9.054)"><path d="M392.471,187.973H396.9q.752,3.571,2.98,14.333.751-3.568,2.98-14.333h4.428q-1.342,4.939-5.422,19.782h-3.972Q396.551,202.816,392.471,187.973Z" transform="translate(-392.471 -187.973)" fill="#fff"/><path d="M421.751,191.919v3.972h5.958v3.946h-5.958v3.972h7.918v3.946H417.805V187.973h11.864v3.946Z" transform="translate(-399.581 -187.973)" fill="#fff"/><path d="M451.683,189.933v17.822h-3.946V191.919h-3.972v15.836h-3.946V187.973h9.9a1.925,1.925,0,0,1,1.96,1.96Z" transform="translate(-405.759 -187.973)" fill="#fff"/><path d="M473.7,189.933v15.836a1.971,1.971,0,0,1-1.96,1.986h-9.9V187.973h9.9a1.927,1.927,0,0,1,1.96,1.96Zm-7.918,13.877h3.972v-11.89h-3.972v11.89Z" transform="translate(-411.937 -187.973)" fill="#fff"/><path d="M487.2,191.919v3.972h5.959v3.946H487.2v3.972h7.918v3.946H483.25V187.973h11.864v3.946Z" transform="translate(-417.947 -187.973)" fill="#fff"/><path d="M517.127,203.809v3.946H505.264V187.973h3.945v15.836Z" transform="translate(-424.124 -187.973)" fill="#fff"/><path d="M526.168,187.973h3.946v19.782h-3.946V187.973Z" transform="translate(-429.991 -187.973)" fill="#fff"/><path d="M549.038,189.933v17.822h-3.945V191.919h-3.972v15.836h-3.946V187.973h9.9a1.926,1.926,0,0,1,1.959,1.96Z" transform="translate(-433.08 -187.973)" fill="#fff"/></g></g><g transform="translate(320.822 175.034)"><path d="M339.122,175.034l14.91,30,14.881-30Z" transform="translate(-325.958 -175.034)" fill="#fff"/><path d="M332.507,175.034H320.822l15.333,30.744,11.632,0Z" transform="translate(-320.822 -175.034)" fill="#fff"/></g></g></svg>